# This file uses centimeters as units for non-parametric coordinates.

mtllib Pared_frontal.mtl
g default
v 11.662226 -0.062320 11.474895
v 11.697994 0.027039 -12.099517
v 11.780250 -0.062321 11.475074
v 11.816017 0.027039 -12.099338
v 11.780250 15.059800 11.525842
v 11.816017 15.149160 -12.048570
v 11.662226 15.059800 11.525662
v 11.697994 15.149160 -12.048749
v 11.664921 -0.055588 9.698952
v 11.664920 15.066532 9.749732
v 11.782944 15.066532 9.749910
v 11.782944 -0.055589 9.699143
v 11.816017 6.814209 -12.076551
v 11.697994 6.814209 -12.076731
v 11.664921 6.731582 9.721743
v 11.662226 6.724850 11.497681
v 11.780250 6.724850 11.497860
v 11.782944 6.731581 9.721930
v 11.796122 -0.022668 1.014084
v 11.796122 6.764503 1.036870
v 11.796122 15.099453 1.064851
v 11.678098 15.099453 1.064672
v 11.678099 6.764503 1.036686
v 11.678099 -0.022668 1.013897
v 11.813569 0.020922 -10.485665
v 11.813569 6.808093 -10.462879
v 11.813569 15.143044 -10.434898
v 11.695546 15.143044 -10.435078
v 11.695547 6.808093 -10.463059
v 11.695546 0.020922 -10.485846
v 11.801086 6.776906 -2.235510
v 11.801086 -0.010264 -2.258296
v 11.683064 -0.010264 -2.258482
v 11.683064 6.776907 -2.235693
v 11.683064 15.111857 -2.207708
v 11.801086 15.111857 -2.207529
v 11.558052 -0.022668 1.014084
v 11.558052 6.764503 1.036870
v 11.544874 6.731581 9.721930
v 11.544874 -0.055589 9.699143
v 11.537979 0.020922 -10.485665
v 11.537979 6.808093 -10.462879
v 11.525496 6.776906 -2.235510
v 11.525496 -0.010264 -2.258296
vt 0.375000 0.000000
vt 0.625000 0.000000
vt 0.687642 0.311628
vt 0.312358 0.311628
vt 0.687642 0.686912
vt 0.312358 0.686912
vt 0.687830 0.311535
vt 0.312170 0.311535
vt 0.687830 0.687195
vt 0.312170 0.687195
vt 0.875000 0.000000
vt 0.875000 0.250000
vt 0.125000 0.000000
vt 0.125000 0.250000
vt 0.393833 0.000000
vt 0.340470 0.687195
vt 0.340470 0.311535
vt 0.340629 0.686912
vt 0.340629 0.311628
vt 0.687642 0.480064
vt 0.771733 0.283968
vt 0.687830 0.518590
vt 0.737206 0.000000
vt 0.340470 0.518590
vt 0.312170 0.518590
vt 0.262794 0.000000
vt 0.312358 0.480064
vt 0.228267 0.283968
vt 0.340629 0.480064
vt 0.478888 0.311628
vt 0.478888 0.480064
vt 0.478888 0.686912
vt 0.478867 0.311535
vt 0.478867 0.518590
vt 0.485936 0.000000
vt 0.478867 0.687195
vt 0.661954 0.311628
vt 0.661954 0.480064
vt 0.661954 0.686912
vt 0.662116 0.311535
vt 0.662116 0.518590
vt 0.607888 0.000000
vt 0.662116 0.687195
vt 0.530981 0.480064
vt 0.530981 0.311628
vt 0.520639 0.000000
vt 0.531012 0.687195
vt 0.531012 0.518590
vt 0.531012 0.311535
vt 0.530981 0.686912
vt 0.478888 0.311628
vt 0.478888 0.480064
vt 0.340629 0.480064
vt 0.340629 0.311628
vt 0.661954 0.311628
vt 0.661954 0.480064
vt 0.530981 0.480064
vt 0.530981 0.311628
vn -0.000001 -0.999993 -0.003791
vn -0.000001 -0.999993 -0.003791
vn 0.000000 -0.999993 -0.003791
vn 0.000000 -0.999993 -0.003791
vn 0.999999 -0.000005 0.001517
vn 0.999999 -0.000005 0.001517
vn 0.999999 -0.000005 0.001517
vn 0.999999 -0.000005 0.001517
vn -0.000006 0.999993 0.003791
vn -0.000006 0.999993 0.003791
vn -0.000006 0.999993 0.003791
vn -0.000006 0.999993 0.003791
vn -0.999999 0.000005 -0.001517
vn -0.999999 0.000005 -0.001517
vn -0.999999 0.000005 -0.001517
vn -0.999999 0.000005 -0.001517
vn 0.001513 0.003357 -0.999993
vn 0.001513 0.003357 -0.999993
vn 0.001517 0.003357 -0.999993
vn 0.001517 0.003357 -0.999993
vn -0.001530 -0.003357 0.999993
vn -0.001518 -0.003357 0.999993
vn -0.001518 -0.003357 0.999993
vn -0.001530 -0.003357 0.999993
vn -0.999999 0.000005 -0.001517
vn -0.999999 0.000005 -0.001517
vn -0.000006 0.999993 0.003791
vn -0.000006 0.999993 0.003791
vn 0.999999 -0.000005 0.001517
vn 0.999999 -0.000005 0.001517
vn 0.000001 -0.999993 -0.003791
vn 0.000001 -0.999993 -0.003791
vn 0.001517 0.003357 -0.999993
vn 0.001517 0.003357 -0.999993
vn -0.999999 0.000005 -0.001518
vn -0.999999 0.000005 -0.001517
vn -0.001530 -0.003357 0.999993
vn -0.001530 -0.003357 0.999993
vn 0.999999 -0.000005 0.001517
vn 0.999999 -0.000005 0.001517
vn 0.999999 -0.000005 0.001517
vn 0.999999 -0.000005 0.001517
vn 0.999999 -0.000005 0.001517
vn 0.999999 -0.000005 0.001517
vn -0.000006 0.999993 0.003791
vn -0.000006 0.999993 0.003791
vn -0.000006 0.999993 0.003791
vn -0.000006 0.999993 0.003791
vn -0.999999 0.000005 -0.001517
vn -0.999999 0.000005 -0.001517
vn -0.999999 0.000005 -0.001517
vn -0.999999 0.000005 -0.001517
vn 0.000003 -0.999993 -0.003790
vn 0.000003 -0.999993 -0.003790
vn 0.000004 -0.999993 -0.003790
vn 0.000004 -0.999993 -0.003790
vn 0.999999 -0.000005 0.001517
vn 0.999999 -0.000005 0.001517
vn 0.999999 -0.000005 0.001517
vn 0.999999 -0.000005 0.001517
vn -0.000006 0.999993 0.003791
vn -0.000006 0.999993 0.003791
vn -0.999999 0.000005 -0.001517
vn -0.999999 0.000005 -0.001517
vn -0.999999 0.000005 -0.001517
vn -0.999999 0.000005 -0.001517
vn 0.000001 -0.999993 -0.003791
vn 0.000001 -0.999993 -0.003791
vn 0.999999 -0.000005 0.001517
vn 0.999999 -0.000005 0.001517
vn -0.999999 0.000005 -0.001517
vn -0.999999 0.000005 -0.001517
vn 0.000000 -0.003357 0.999994
vn 0.000000 -0.003357 0.999994
vn 0.000000 -0.003357 0.999994
vn 0.000000 -0.003357 0.999994
vn 0.000000 -0.999993 -0.003791
vn 0.000000 -0.999993 -0.003791
vn 0.000000 -0.999993 -0.003791
vn 0.000000 -0.999993 -0.003791
vn 0.000000 0.003357 -0.999994
vn 0.000000 0.003357 -0.999994
vn 0.000000 0.003357 -0.999994
vn 0.000000 0.003357 -0.999994
vn 0.000000 0.999993 0.003791
vn 0.000000 0.999993 0.003791
vn 0.000000 0.999993 0.003791
vn 0.000000 0.999993 0.003791
vn 0.000000 -0.003357 0.999994
vn 0.000000 -0.003357 0.999994
vn 0.000000 -0.003357 0.999994
vn 0.000000 -0.003357 0.999994
vn 0.000000 -0.999993 -0.003790
vn 0.000000 -0.999993 -0.003790
vn 0.000000 -0.999993 -0.003790
vn 0.000000 -0.999993 -0.003790
vn 0.000000 0.003357 -0.999994
vn 0.000000 0.003357 -0.999994
vn 0.000000 0.003357 -0.999994
vn 0.000000 0.003357 -0.999994
vn 0.000000 0.999993 0.003791
vn 0.000000 0.999993 0.003791
vn 0.000000 0.999993 0.003791
vn 0.000000 0.999993 0.003791
s 1
g polySurface25polySurface22polySurface20polySurface18polySurface16polySurface14polySurface12
usemtl Pared_trasera1:phong1SG
f 12/19/1 9/15/2 24/35/3 19/30/4
s 2
f 11/18/5 18/29/6 20/31/7 21/32/8
s 3
f 10/17/9 11/18/10 21/32/11 22/33/12
s 4
f 22/33/13 23/34/14 15/24/15 10/17/16
s 5
f 13/21/17 14/23/18 8/11/19 6/12/20
s 6
f 7/13/21 16/26/22 17/28/23 5/14/24
s 4
f 7/8/25 10/17/16 15/24/15 16/25/26
s 3
f 5/6/27 11/18/10 10/17/9 7/8/28
s 2
f 17/27/29 18/29/6 11/18/5 5/6/30
s 1
f 1/1/31 9/15/2 12/19/1 3/4/32
s 5
f 2/2/33 14/23/18 13/21/17 4/3/34
s 4
f 16/25/26 15/24/15 9/16/35 1/10/36
s 6
f 17/28/23 16/26/22 1/1/37 3/4/38
s 2
f 3/4/39 12/19/40 18/29/6 17/27/29
f 36/50/41 31/44/42 26/38/43 27/39/44
s 3
f 35/49/45 36/50/46 27/39/47 28/40/48
s 4
f 28/40/49 29/41/50 34/48/51 35/49/52
s 1
f 32/45/53 33/46/54 30/42/55 25/37/56
s 2
f 13/20/57 26/38/43 25/37/58 4/3/59
f 27/39/44 26/38/43 13/20/57 6/5/60
s 3
f 28/40/48 27/39/47 6/5/61 8/7/62
s 4
f 14/22/63 29/41/50 28/40/49 8/7/64
f 30/43/65 29/41/50 14/22/63 2/9/66
s 1
f 25/37/56 30/42/55 2/2/67 4/3/68
s 2
f 32/45/69 31/44/42 20/31/7 19/30/70
s 1
f 19/30/4 24/35/3 33/46/54 32/45/53
s 4
f 24/36/71 23/34/14 34/48/51 33/47/72
f 35/49/52 34/48/51 23/34/14 22/33/13
s 3
f 22/33/12 21/32/11 36/50/46 35/49/45
s 2
f 21/32/8 20/31/7 31/44/42 36/50/41
s off
f 19/30/73 20/31/74 38/52/75 37/51/76
f 20/31/77 18/29/78 39/53/79 38/52/80
f 18/29/81 12/19/82 40/54/83 39/53/84
f 12/19/85 19/30/86 37/51/87 40/54/88
f 25/37/89 26/38/90 42/56/91 41/55/92
f 26/38/93 31/44/94 43/57/95 42/56/96
f 31/44/97 32/45/98 44/58/99 43/57/100
f 32/45/101 25/37/102 41/55/103 44/58/104
