# This file uses centimeters as units for non-parametric coordinates.

mtllib Pared_frontal.mtl
g default
v 11.639184 0.025706 11.449443
v 11.674952 0.115066 -12.124969
v 11.757204 0.025706 11.449622
v 11.792972 0.115065 -12.124789
v 11.757204 15.147826 11.500390
v 11.792972 15.237186 -12.074021
v 11.639184 15.147826 11.500211
v 11.674952 15.237186 -12.074201
v 11.655242 0.065823 0.866064
v 11.655242 15.187943 0.916832
v 11.773265 15.187943 0.917011
v 11.773265 0.065822 0.866243
v 11.658619 0.074260 -1.359794
v 11.776642 0.074260 -1.359614
v 11.776642 15.196381 -1.308846
v 11.658619 15.196381 -1.309026
v 11.757207 9.832583 11.482546
v 11.773265 9.872699 0.899167
v 11.776642 9.881136 -1.326691
v 11.792976 9.921943 -12.091866
v 11.674952 9.921943 -12.092045
v 11.658619 9.881136 -1.326870
v 11.655242 9.872700 0.898988
v 11.639184 9.832583 11.482366
v 11.757207 1.227176 11.453656
v 11.773265 1.267292 0.870277
v 11.776642 1.275730 -1.355581
v 11.792976 1.316535 -12.120756
v 11.674953 1.316536 -12.120935
v 11.658619 1.275730 -1.355760
v 11.655242 1.267293 0.870098
v 11.639184 1.227176 11.453477
v 11.641449 0.031364 9.956826
v 11.641449 1.232834 9.960861
v 11.641449 9.838241 9.989750
v 11.641449 15.153484 10.007594
v 11.759471 15.153484 10.007773
v 11.759471 9.838241 9.989929
v 11.759471 1.232834 9.961040
v 11.759471 0.031364 9.957006
v 11.672765 0.109602 -10.683490
v 11.672766 1.311072 -10.679457
v 11.672765 9.916479 -10.650566
v 11.672765 15.231725 -10.632722
v 11.790789 15.231725 -10.632543
v 11.790789 9.916479 -10.650387
v 11.790789 1.311071 -10.679278
v 11.790789 0.109601 -10.683311
v 11.024866 9.838241 9.989929
v 11.024866 1.232834 9.961040
v 11.038660 1.267292 0.870277
v 11.038660 9.872699 0.899167
v 11.116177 9.916479 -10.650387
v 11.116177 1.311071 -10.679278
v 11.102030 9.881136 -1.326691
v 11.102030 1.275730 -1.355581
vt 0.487234 0.250000
vt 0.487234 0.000000
vt 0.510838 0.000000
vt 0.510838 0.250000
vt 0.487234 0.500000
vt 0.487234 0.412128
vt 0.510838 0.412128
vt 0.510838 0.500000
vt 0.487234 0.750000
vt 0.510838 0.750000
vt 0.510838 0.837872
vt 0.487234 0.837872
vt 0.787128 0.250000
vt 0.787128 0.000000
vt 0.875000 0.000000
vt 0.875000 0.250000
vt 0.125000 0.000000
vt 0.212872 0.000000
vt 0.212872 0.250000
vt 0.125000 0.250000
vt 0.390829 0.837872
vt 0.390829 0.750000
vt 0.390829 0.500000
vt 0.390829 0.412128
vt 0.390829 0.250000
vt 0.390829 0.000000
vt 0.609714 0.250000
vt 0.609714 0.000000
vt 0.625000 0.000000
vt 0.625000 0.250000
vt 0.609714 0.500000
vt 0.609714 0.412128
vt 0.625000 0.412128
vt 0.625000 0.500000
vt 0.609714 0.750000
vt 0.625000 0.750000
vt 0.625000 0.837872
vt 0.609714 0.837872
vt 0.487234 0.269863
vt 0.510838 0.269863
vt 0.609714 0.269863
vt 0.625000 0.269863
vt 0.644863 0.250000
vt 0.644863 0.000000
vt 0.625000 0.980137
vt 0.609714 0.980137
vt 0.510838 0.980137
vt 0.487234 0.980137
vt 0.355137 0.000000
vt 0.355137 0.250000
vt 0.390829 0.269863
vt 0.609714 1.000000
vt 0.625000 1.000000
vt 0.487234 1.000000
vt 0.510838 1.000000
vt 0.390829 1.000000
vt 0.390829 0.980137
vt 0.375000 0.000000
vt 0.375000 0.250000
vt 0.375000 0.980137
vt 0.375000 1.000000
vt 0.375000 0.837872
vt 0.375000 0.750000
vt 0.375000 0.500000
vt 0.375000 0.412128
vt 0.375000 0.269863
vt 0.390829 0.269863
vt 0.390829 0.412128
vt 0.487234 0.269863
vt 0.487234 0.412128
vt 0.609714 0.412128
vt 0.609714 0.269863
vt 0.510838 0.412128
vt 0.510838 0.269863
vn 0.000001 -0.999993 -0.003790
vn 0.000001 -0.999993 -0.003791
vn 0.000001 -0.999993 -0.003791
vn 0.000001 -0.999993 -0.003791
vn 0.999999 -0.000005 0.001517
vn 0.999999 -0.000005 0.001517
vn 0.999999 -0.000005 0.001517
vn 0.999999 -0.000005 0.001517
vn -0.000006 0.999993 0.003790
vn -0.000006 0.999993 0.003790
vn -0.000006 0.999993 0.003791
vn -0.000006 0.999993 0.003791
vn -0.999999 0.000005 -0.001517
vn -0.999999 0.000005 -0.001517
vn -0.999999 0.000005 -0.001517
vn -0.999999 0.000005 -0.001517
vn 0.001518 0.003357 -0.999993
vn 0.001518 0.003357 -0.999993
vn 0.001520 0.003357 -0.999993
vn 0.001520 0.003357 -0.999993
vn -0.001526 -0.003357 0.999993
vn -0.001525 -0.003357 0.999993
vn -0.001525 -0.003357 0.999993
vn -0.001526 -0.003357 0.999993
vn -0.999999 0.000005 -0.001517
vn -0.999999 0.000005 -0.001517
vn -0.000006 0.999993 0.003790
vn -0.000006 0.999993 0.003790
vn 0.999999 -0.000005 0.001517
vn 0.999999 -0.000005 0.001517
vn 0.000001 -0.999993 -0.003791
vn 0.000001 -0.999993 -0.003791
vn 0.000001 -0.999993 -0.003791
vn 0.000001 -0.999993 -0.003791
vn 0.000001 -0.999993 -0.003790
vn 0.000001 -0.999993 -0.003790
vn 0.999999 -0.000005 0.001517
vn 0.999999 -0.000005 0.001517
vn 0.999999 -0.000005 0.001517
vn 0.999999 -0.000005 0.001516
vn -0.000006 0.999993 0.003791
vn -0.000006 0.999993 0.003791
vn -0.000006 0.999993 0.003789
vn -0.000006 0.999993 0.003789
vn -0.999999 0.000005 -0.001517
vn -0.999999 0.000005 -0.001517
vn -0.999999 0.000005 -0.001517
vn -0.999999 0.000005 -0.001517
vn 0.999999 -0.000005 0.001517
vn 0.999999 -0.000005 0.001517
vn 0.999999 -0.000005 0.001517
vn 0.999999 -0.000005 0.001517
vn 0.001517 0.003357 -0.999993
vn 0.001517 0.003357 -0.999993
vn -0.999999 0.000005 -0.001517
vn -0.999999 0.000005 -0.001517
vn -0.999999 0.000005 -0.001517
vn -0.999999 0.000005 -0.001517
vn -0.001524 -0.003357 0.999993
vn -0.001524 -0.003357 0.999993
vn 0.999999 -0.000005 0.001517
vn 0.999999 -0.000005 0.001517
vn 0.999999 -0.000005 0.001517
vn 0.999999 -0.000005 0.001517
vn 0.999999 -0.000006 0.001517
vn 0.999999 -0.000007 0.001516
vn 0.001516 0.003357 -0.999993
vn 0.001516 0.003357 -0.999993
vn -0.999999 0.000006 -0.001517
vn -0.999999 0.000007 -0.001517
vn -0.999999 0.000005 -0.001517
vn -0.999999 0.000005 -0.001517
vn -0.999999 0.000005 -0.001517
vn -0.999999 0.000005 -0.001517
vn -0.001520 -0.003358 0.999993
vn -0.001520 -0.003358 0.999993
vn -0.999999 0.000005 -0.001517
vn -0.999999 0.000004 -0.001517
vn -0.999999 0.000005 -0.001517
vn -0.999999 0.000005 -0.001517
vn -0.000006 0.999993 0.003791
vn -0.000006 0.999993 0.003791
vn 0.999999 -0.000005 0.001517
vn 0.999999 -0.000005 0.001518
vn 0.999999 -0.000005 0.001517
vn 0.999999 -0.000006 0.001518
vn 0.000001 -0.999993 -0.003791
vn 0.000001 -0.999993 -0.003791
vn 0.000000 0.003357 -0.999994
vn 0.000000 0.003357 -0.999994
vn 0.000000 0.003357 -0.999994
vn 0.000000 0.003357 -0.999994
vn 0.000000 0.999993 0.003790
vn 0.000000 0.999993 0.003790
vn 0.000000 0.999993 0.003790
vn 0.000000 0.999993 0.003790
vn 0.000000 -0.003357 0.999994
vn 0.000000 -0.003357 0.999994
vn 0.000000 -0.003357 0.999994
vn 0.000000 -0.003357 0.999994
vn 0.000000 -0.999993 -0.003790
vn 0.000000 -0.999993 -0.003790
vn 0.000000 -0.999993 -0.003790
vn 0.000000 -0.999993 -0.003790
vn 0.000000 -0.003357 0.999994
vn 0.000000 -0.003357 0.999994
vn 0.000000 -0.003357 0.999994
vn 0.000000 -0.003357 0.999994
vn 0.000000 -0.999993 -0.003791
vn 0.000000 -0.999993 -0.003791
vn 0.000000 -0.999993 -0.003791
vn 0.000000 -0.999993 -0.003791
vn 0.000000 0.003357 -0.999994
vn 0.000000 0.003357 -0.999994
vn 0.000000 0.003357 -0.999994
vn 0.000000 0.003357 -0.999994
vn 0.000000 0.999993 0.003790
vn 0.000000 0.999993 0.003790
vn 0.000000 0.999993 0.003790
vn 0.000000 0.999993 0.003790
s 1
g polySurface23 polySurface22 polySurface20 polySurface18 polySurface16 polySurface14 polySurface12
usemtl initialShadingGroup
f 12/1/1 9/2/2 13/3/3 14/4/4
s 2
f 11/5/5 18/6/6 19/7/7 15/8/8
s 3
f 10/9/9 11/5/10 15/8/11 16/10/12
s 4
f 22/11/13 23/12/14 10/9/15 16/10/16
s 5
f 20/13/17 21/14/18 8/15/19 6/16/20
s 6
f 7/17/21 24/18/22 17/19/23 5/20/24
s 4
f 35/21/25 36/22/26 10/9/15 23/12/14
s 3
f 36/22/27 37/23/28 11/5/10 10/9/9
s 2
f 37/23/29 38/24/30 18/6/6 11/5/5
s 1
f 40/25/31 33/26/32 9/2/2 12/1/1
f 48/27/33 41/28/34 2/29/35 4/30/36
s 2
f 45/31/37 46/32/38 20/33/39 6/34/40
s 3
f 44/35/41 45/31/42 6/34/43 8/36/44
s 4
f 21/37/45 43/38/46 44/35/47 8/36/48
s 2
f 19/7/7 18/6/6 26/39/49 27/40/50
f 20/33/39 46/32/38 47/41/51 28/42/52
s 5
f 28/43/53 29/44/54 21/14/18 20/13/17
s 4
f 29/45/55 42/46/56 43/38/46 21/37/45
f 30/47/57 31/48/58 23/12/14 22/11/13
s 6
f 17/19/23 24/18/22 32/49/59 25/50/60
s 2
f 39/51/61 40/25/62 12/1/63 26/39/49
f 27/40/50 26/39/49 12/1/63 14/4/64
f 28/42/52 47/41/51 48/27/65 4/30/66
s 5
f 2/29/67 29/44/54 28/43/53 4/30/68
s 4
f 41/52/69 42/46/56 29/45/55 2/53/70
f 9/54/71 31/48/58 30/47/57 13/55/72
f 33/56/73 34/57/74 31/48/58 9/54/71
s 6
f 25/50/60 32/49/59 1/58/75 3/59/76
s 4
f 32/60/77 34/57/74 33/56/73 1/61/78
f 24/62/79 35/21/25 34/57/74 32/60/77
f 7/63/80 36/22/26 35/21/25 24/62/79
s 3
f 5/64/81 37/23/28 36/22/27 7/63/82
s 2
f 17/65/83 38/24/30 37/23/29 5/64/84
f 25/66/85 39/51/61 38/24/30 17/65/83
f 3/59/86 40/25/62 39/51/61 25/66/85
s 1
f 1/58/87 33/26/32 40/25/31 3/59/88
s 4
f 13/55/72 30/47/57 42/46/56 41/52/69
f 44/35/47 43/38/46 22/11/13 16/10/16
s 3
f 16/10/12 15/8/11 45/31/42 44/35/41
s 2
f 15/8/8 19/7/7 46/32/38 45/31/37
f 48/27/65 47/41/51 27/40/50 14/4/64
s 1
f 14/4/4 13/3/3 41/28/34 48/27/33
s off
f 38/24/89 39/51/90 50/67/91 49/68/92
f 39/51/93 26/39/94 51/69/95 50/67/96
f 26/39/97 18/6/98 52/70/99 51/69/100
f 18/6/101 38/24/102 49/68/103 52/70/104
f 47/41/105 46/32/106 53/71/107 54/72/108
f 46/32/109 19/7/110 55/73/111 53/71/112
f 19/7/113 27/40/114 56/74/115 55/73/116
f 27/40/117 47/41/118 54/72/119 56/74/120
