# This file uses centimeters as units for non-parametric coordinates.

mtllib Techo2.mtl
g default
v -11.630777 11.315157 11.222483
v -11.218293 12.470754 11.230830
v -10.058142 13.500711 11.238457
v -8.263885 14.304210 11.244615
v -6.011158 14.802597 11.248701
v -3.520474 14.947087 11.250317
v -1.035637 14.723537 11.249302
v 1.200119 14.153831 11.245759
v 2.967942 13.293732 11.240032
v 4.094786 12.227435 11.232682
v 4.470348 11.059317 11.224430
v -11.625347 11.480593 -11.947239
v -11.212864 12.636190 -11.938891
v -10.052711 13.666147 -11.931265
v -8.258455 14.469646 -11.925107
v -6.005728 14.968033 -11.921021
v -3.515044 15.112524 -11.919405
v -1.030207 14.888974 -11.920420
v 1.205548 14.319266 -11.923963
v 2.973372 13.459168 -11.929689
v 4.100216 12.392872 -11.937039
v 4.475778 11.224753 -11.945292
v -3.580213 11.187237 11.223456
v -3.574783 11.352673 -11.946265
vt 0.320966 -0.000384
vt 0.354273 -0.000384
vt 0.354273 1.001324
vt 0.320966 1.001324
vt 0.387580 -0.000384
vt 0.387580 1.001324
vt 0.420886 -0.000384
vt 0.420886 1.001324
vt 0.454193 -0.000384
vt 0.454193 1.001324
vt 0.487500 -0.000384
vt 0.487500 1.001324
vt 0.520807 -0.000384
vt 0.520807 1.001324
vt 0.554113 -0.000384
vt 0.554113 1.001324
vt 0.587420 -0.000384
vt 0.587420 1.001324
vt 0.620727 -0.000384
vt 0.620727 1.001324
vt 0.654034 -0.000384
vt 0.654034 1.001324
vt 0.451716 0.007647
vt 0.500000 -0.000000
vt 0.500000 0.150000
vt 0.408159 0.029841
vt 0.373591 0.064409
vt 0.351397 0.107966
vt 0.343750 0.156250
vt 0.351397 0.204534
vt 0.373591 0.248091
vt 0.408159 0.282659
vt 0.451716 0.304853
vt 0.500000 0.312500
vt 0.500000 1.000000
vt 0.451716 0.992353
vt 0.500000 0.837500
vt 0.408159 0.970159
vt 0.373591 0.935591
vt 0.351397 0.892034
vt 0.343750 0.843750
vt 0.351397 0.795466
vt 0.373591 0.751909
vt 0.408159 0.717341
vt 0.451716 0.695147
vt 0.500000 0.687500
vn -0.941804 0.336157 0.002180
vn -0.811711 0.584046 0.003980
vn -0.811711 0.584046 0.003980
vn -0.941804 0.336157 0.002180
vn -0.811711 0.584046 0.003980
vn -0.527308 0.849653 0.005943
vn -0.527308 0.849653 0.005943
vn -0.811711 0.584046 0.003980
vn -0.527308 0.849653 0.005943
vn -0.306246 0.951929 0.006725
vn -0.306246 0.951929 0.006725
vn -0.527308 0.849653 0.005943
vn -0.306246 0.951929 0.006725
vn -0.134308 0.990915 0.007044
vn -0.134308 0.990915 0.007044
vn -0.306246 0.951929 0.006725
vn -0.134308 0.990915 0.007044
vn 0.015886 0.999848 0.007143
vn 0.015886 0.999848 0.007143
vn -0.134308 0.990915 0.007044
vn 0.015886 0.999848 0.007143
vn 0.165721 0.986147 0.007080
vn 0.165721 0.986147 0.007080
vn 0.015886 0.999848 0.007143
vn 0.165721 0.986147 0.007080
vn 0.336333 0.941719 0.006803
vn 0.336333 0.941719 0.006803
vn 0.165721 0.986147 0.007080
vn 0.336333 0.941719 0.006803
vn 0.554035 0.832471 0.006074
vn 0.554035 0.832471 0.006074
vn 0.336333 0.941719 0.006803
vn 0.554035 0.832471 0.006074
vn 0.829857 0.557961 0.004178
vn 0.829857 0.557961 0.004178
vn 0.554035 0.832471 0.006074
vn 0.829857 0.557961 0.004178
vn 0.952008 0.306064 0.002408
vn 0.952008 0.306064 0.002408
vn 0.829857 0.557961 0.004178
vn -0.000234 -0.007140 0.999974
vn -0.000234 -0.007140 0.999975
vn -0.000234 -0.007140 0.999974
vn -0.000235 -0.007140 0.999974
vn -0.000234 -0.007140 0.999974
vn -0.000234 -0.007140 0.999974
vn -0.000235 -0.007140 0.999975
vn -0.000235 -0.007140 0.999974
vn -0.000234 -0.007140 0.999974
vn -0.000235 -0.007140 0.999975
vn -0.000235 -0.007140 0.999975
vn -0.000234 -0.007140 0.999974
vn -0.000235 -0.007140 0.999975
vn -0.000235 -0.007140 0.999975
vn -0.000234 -0.007140 0.999974
vn -0.000234 -0.007140 0.999974
vn -0.000235 -0.007140 0.999975
vn -0.000234 -0.007140 0.999974
vn -0.000234 -0.007140 0.999974
vn -0.000234 -0.007140 0.999974
vn -0.000234 -0.007140 0.999974
vn -0.000234 -0.007140 0.999974
vn -0.000234 -0.007140 0.999974
vn -0.000234 -0.007140 0.999974
vn -0.000234 -0.007140 0.999974
vn -0.000234 -0.007140 0.999974
vn -0.000234 -0.007140 0.999974
vn -0.000234 -0.007140 0.999975
vn -0.000234 -0.007140 0.999974
vn -0.000234 -0.007140 0.999974
vn 0.000235 0.007140 -0.999975
vn 0.000235 0.007140 -0.999974
vn 0.000234 0.007140 -0.999974
vn 0.000235 0.007140 -0.999974
vn 0.000235 0.007140 -0.999974
vn 0.000234 0.007140 -0.999974
vn 0.000235 0.007140 -0.999974
vn 0.000234 0.007140 -0.999974
vn 0.000234 0.007140 -0.999974
vn 0.000234 0.007140 -0.999974
vn 0.000234 0.007140 -0.999974
vn 0.000234 0.007140 -0.999974
vn 0.000234 0.007140 -0.999974
vn 0.000234 0.007140 -0.999974
vn 0.000234 0.007140 -0.999974
vn 0.000234 0.007140 -0.999974
vn 0.000234 0.007140 -0.999974
vn 0.000234 0.007140 -0.999974
vn 0.000234 0.007140 -0.999974
vn 0.000235 0.007140 -0.999974
vn 0.000234 0.007140 -0.999974
vn 0.000235 0.007140 -0.999974
vn 0.000234 0.007140 -0.999974
vn 0.000234 0.007140 -0.999974
vn 0.000234 0.007140 -0.999974
vn 0.000234 0.007140 -0.999974
vn 0.000234 0.007140 -0.999974
vn 0.000234 0.007140 -0.999974
vn 0.000234 0.007140 -0.999975
vn 0.000234 0.007140 -0.999974
s off
g Techo2:pCylinder1
usemtl Techo2:phong2SG
f 1/1/1 2/2/2 13/3/3 12/4/4
f 2/2/5 3/5/6 14/6/7 13/3/8
f 3/5/9 4/7/10 15/8/11 14/6/12
f 4/7/13 5/9/14 16/10/15 15/8/16
f 5/9/17 6/11/18 17/12/19 16/10/20
f 6/11/21 7/13/22 18/14/23 17/12/24
f 7/13/25 8/15/26 19/16/27 18/14/28
f 8/15/29 9/17/30 20/18/31 19/16/32
f 9/17/33 10/19/34 21/20/35 20/18/36
f 10/19/37 11/21/38 22/22/39 21/20/40
f 2/23/41 1/24/42 23/25/43
f 3/26/44 2/23/45 23/25/46
f 4/27/47 3/26/48 23/25/49
f 5/28/50 4/27/51 23/25/52
f 6/29/53 5/28/54 23/25/55
f 7/30/56 6/29/57 23/25/58
f 8/31/59 7/30/60 23/25/61
f 9/32/62 8/31/63 23/25/64
f 10/33/65 9/32/66 23/25/67
f 11/34/68 10/33/69 23/25/70
f 12/35/71 13/36/72 24/37/73
f 13/36/74 14/38/75 24/37/76
f 14/38/77 15/39/78 24/37/79
f 15/39/80 16/40/81 24/37/82
f 16/40/83 17/41/84 24/37/85
f 17/41/86 18/42/87 24/37/88
f 18/42/89 19/43/90 24/37/91
f 19/43/92 20/44/93 24/37/94
f 20/44/95 21/45/96 24/37/97
f 21/45/98 22/46/99 24/37/100
