# This file uses centimeters as units for non-parametric coordinates.

mtllib barra2.mtl
g default
v 9.744380 -0.059320 -2.125898
v 12.008682 -0.056066 -2.083854
v 9.738979 3.740570 -2.129824
v 12.003281 3.743824 -2.087781
v 9.870779 3.668553 -10.696177
v 12.135080 3.671808 -10.654135
v 9.876180 -0.131337 -10.692251
v 12.140482 -0.128082 -10.650208
v 9.390107 3.716618 -1.753181
v 12.343840 3.720863 -1.698447
v 9.389352 4.248680 -1.753777
v 12.343084 4.252925 -1.699043
v 9.535192 4.176663 -11.059061
v 12.488926 4.180909 -11.004328
v 9.535948 3.644601 -11.058466
v 12.489681 3.648847 -11.003731
v 12.370023 4.239623 -3.417840
vt 0.729596 0.000000
vt 0.979596 0.000000
vt 0.979596 0.250000
vt 0.729596 0.250000
vt 0.625000 0.500000
vt 0.375000 0.500000
vt 0.625000 0.750000
vt 0.375000 0.750000
vt 0.625000 1.000000
vt 0.375000 1.000000
vt 0.875000 0.000000
vt 0.875000 0.250000
vt 0.125000 0.000000
vt 0.125000 0.250000
vt 0.375000 0.000000
vt 0.625000 0.000000
vt 0.625000 0.250000
vt 0.375000 0.250000
vt 0.625000 0.296178
vt 0.625000 0.500000
vt 0.375000 0.500000
vt 0.625000 0.750000
vt 0.375000 0.750000
vt 0.625000 1.000000
vt 0.375000 1.000000
vt 0.875000 0.000000
vt 0.875000 0.250000
vt 0.671178 0.250000
vt 0.125000 0.000000
vt 0.125000 0.250000
vn -0.018566 0.001007 0.999827
vn -0.018566 0.001007 0.999827
vn -0.018566 0.001007 0.999827
vn -0.018566 0.001007 0.999827
vn -0.001281 0.999964 -0.008426
vn -0.001281 0.999964 -0.008426
vn -0.001281 0.999964 -0.008426
vn -0.001281 0.999964 -0.008426
vn 0.018566 -0.001007 -0.999827
vn 0.018566 -0.001007 -0.999827
vn 0.018566 -0.001007 -0.999827
vn 0.018566 -0.001007 -0.999827
vn 0.001281 -0.999964 0.008426
vn 0.001281 -0.999964 0.008426
vn 0.001281 -0.999964 0.008426
vn 0.001281 -0.999964 0.008426
vn 0.999881 0.001437 0.015372
vn 0.999881 0.001437 0.015372
vn 0.999881 0.001437 0.015372
vn 0.999881 0.001437 0.015372
vn -0.999881 -0.001437 -0.015372
vn -0.999881 -0.001437 -0.015372
vn -0.999881 -0.001437 -0.015372
vn -0.999881 -0.001437 -0.015372
vn -0.018529 0.001093 0.999828
vn -0.018529 0.001093 0.999828
vn -0.018529 0.001093 0.999828
vn -0.018529 0.001093 0.999828
vn -0.001294 0.999969 -0.007759
vn -0.001294 0.999969 -0.007759
vn -0.001294 0.999969 -0.007759
vn -0.001294 0.999969 -0.007759
vn -0.001294 0.999969 -0.007759
vn 0.018529 -0.001094 -0.999828
vn 0.018529 -0.001094 -0.999828
vn 0.018529 -0.001094 -0.999828
vn 0.018529 -0.001094 -0.999828
vn 0.001294 -0.999969 0.007759
vn 0.001294 -0.999969 0.007759
vn 0.001294 -0.999969 0.007759
vn 0.001294 -0.999969 0.007759
vn 0.999876 0.001439 0.015660
vn 0.999876 0.001439 0.015660
vn 0.999876 0.001439 0.015660
vn 0.999876 0.001439 0.015660
vn 0.999876 0.001439 0.015660
vn -0.999876 -0.001436 -0.015660
vn -0.999876 -0.001436 -0.015660
vn -0.999876 -0.001436 -0.015660
vn -0.999876 -0.001436 -0.015660
s off
g polySurface6
usemtl lambert2SG
f 1/1/1 2/2/2 4/3/3 3/4/4
f 3/4/5 4/3/6 6/5/7 5/6/8
f 5/6/9 6/5/10 8/7/11 7/8/12
f 7/8/13 8/7/14 2/9/15 1/10/16
f 2/2/17 8/11/18 6/12/19 4/3/20
f 7/13/21 1/1/22 3/4/23 5/14/24
usemtl phong1SG
f 9/15/25 10/16/26 12/17/27 11/18/28
f 11/18/29 12/17/30 17/19/31 14/20/32 13/21/33
f 13/21/34 14/20/35 16/22/36 15/23/37
f 15/23/38 16/22/39 10/24/40 9/25/41
f 10/16/42 16/26/43 14/27/44 17/28/45 12/17/46
f 15/29/47 9/15/48 11/18/49 13/30/50
