# This file uses centimeters as units for non-parametric coordinates.

mtllib Letrero.mtl
g default
v -11.727520 4.215341 -8.902136
v -11.583438 4.215341 -8.942088
v -11.727520 5.109203 -8.902136
v -11.583438 5.109203 -8.942088
v -11.757139 5.109203 -11.489311
v -11.613058 5.109203 -11.529263
v -11.757139 4.215341 -11.489311
v -11.613058 4.215341 -11.529263
vt 0.375000 0.000000
vt -0.001461 0.014035
vt -0.001461 0.986301
vt 0.375000 0.250000
vt 0.625000 0.500000
vt 0.375000 0.500000
vt 0.625000 0.750000
vt 0.375000 0.750000
vt 0.625000 1.000000
vt 0.375000 1.000000
vt 1.001237 0.014035
vt 1.001237 0.986301
vt 0.125000 0.000000
vt 0.125000 0.250000
vn 0.008018 0.000000 0.999968
vn 0.008018 0.000000 0.999968
vn 0.008018 0.000000 0.999968
vn 0.008018 0.000000 0.999968
vn 0.000000 1.000000 0.000000
vn 0.000000 1.000000 0.000000
vn 0.000000 1.000000 0.000000
vn 0.000000 1.000000 0.000000
vn -0.008018 0.000000 -0.999968
vn -0.008018 0.000000 -0.999968
vn -0.008018 0.000000 -0.999968
vn -0.008018 0.000000 -0.999968
vn 0.000000 -1.000000 0.000000
vn 0.000000 -1.000000 0.000000
vn 0.000000 -1.000000 0.000000
vn 0.000000 -1.000000 0.000000
vn 0.999935 0.000000 -0.011448
vn 0.999935 0.000000 -0.011448
vn 0.999935 0.000000 -0.011448
vn 0.999935 0.000000 -0.011448
vn -0.999935 0.000000 0.011448
vn -0.999935 0.000000 0.011448
vn -0.999935 0.000000 0.011448
vn -0.999935 0.000000 0.011448
s off
g Puerta:pCube17
usemtl phong1SG
f 1/1/1 2/2/2 4/3/3 3/4/4
f 3/4/5 4/3/6 6/5/7 5/6/8
f 5/6/9 6/5/10 8/7/11 7/8/12
f 7/8/13 8/7/14 2/9/15 1/10/16
f 2/2/17 8/11/18 6/12/19 4/3/20
f 7/13/21 1/1/22 3/4/23 5/14/24
