# This file uses centimeters as units for non-parametric coordinates.

mtllib Pared_trasera.mtl
g default
v -25.160969 -0.062320 11.474895
v -25.125202 0.027039 -12.099517
v -25.042946 -0.062321 11.475074
v -25.007179 0.027039 -12.099338
v -25.042946 15.059800 11.525842
v -25.007179 15.149160 -12.048570
v -25.160969 15.059800 11.525662
v -25.125202 15.149160 -12.048749
vt 0.375000 0.000000
vt 0.625000 0.000000
vt 0.687642 0.311628
vt 0.312358 0.311628
vt 0.687642 0.686912
vt 0.312358 0.686912
vt 0.687830 0.311535
vt 0.312170 0.311535
vt 0.687830 0.687195
vt 0.312170 0.687195
vt 0.875000 0.000000
vt 0.875000 0.250000
vt 0.125000 0.000000
vt 0.125000 0.250000
vn 0.000001 -0.999993 -0.003791
vn 0.000001 -0.999993 -0.003791
vn 0.000001 -0.999993 -0.003791
vn 0.000001 -0.999993 -0.003791
vn 0.999999 -0.000005 0.001517
vn 0.999999 -0.000005 0.001517
vn 0.999999 -0.000005 0.001517
vn 0.999999 -0.000005 0.001517
vn -0.000006 0.999993 0.003791
vn -0.000006 0.999993 0.003791
vn -0.000006 0.999993 0.003791
vn -0.000006 0.999993 0.003791
vn -0.999999 0.000005 -0.001517
vn -0.999999 0.000005 -0.001517
vn -0.999999 0.000005 -0.001517
vn -0.999999 0.000005 -0.001517
vn 0.001517 0.003357 -0.999993
vn 0.001517 0.003357 -0.999993
vn 0.001517 0.003357 -0.999993
vn 0.001517 0.003357 -0.999993
vn -0.001530 -0.003357 0.999993
vn -0.001530 -0.003357 0.999993
vn -0.001530 -0.003357 0.999993
vn -0.001530 -0.003357 0.999993
s off
g Pared_trasera1:polySurface25polySurface22polySurface20polySurface18polySurface16polySurface14polySurface12
usemtl Pared_trasera1:phong1SG
f 1/1/1 2/2/2 4/3/3 3/4/4
f 3/4/5 4/3/6 6/5/7 5/6/8
f 5/6/9 6/5/10 8/7/11 7/8/12
f 7/8/13 8/7/14 2/9/15 1/10/16
f 2/2/17 8/11/18 6/12/19 4/3/20
f 7/13/21 1/1/22 3/4/23 5/14/24
