# This file uses centimeters as units for non-parametric coordinates.

mtllib Pared_izq.mtl
g default
v -25.166389 0.028747 11.406901
v -11.700200 0.028747 11.406901
v -25.166389 0.028302 11.524261
v -11.700200 0.028302 11.524261
v -25.166389 15.064981 11.574742
v -11.700200 15.064981 11.574742
v -25.166389 15.065427 11.457382
v -11.700200 15.065427 11.457382
vt 0.376062 0.004246
vt 0.623938 0.004246
vt 0.999112 -0.001604
vt 0.000888 -0.001604
vt 0.999112 0.996619
vt 0.000888 0.996619
vt 0.778966 0.220039
vt 0.221034 0.220039
vt 0.778966 0.777971
vt 0.221034 0.777971
vt 0.871815 0.004246
vt 0.871815 0.252123
vt 0.128185 0.004246
vt 0.128185 0.252123
vn 0.000000 -0.999993 -0.003790
vn 0.000000 -0.999993 -0.003790
vn 0.000000 -0.999993 -0.003790
vn 0.000000 -0.999993 -0.003790
vn 0.000000 -0.003357 0.999994
vn 0.000000 -0.003357 0.999994
vn 0.000000 -0.003357 0.999994
vn 0.000000 -0.003357 0.999994
vn 0.000000 0.999993 0.003804
vn 0.000000 0.999993 0.003804
vn 0.000000 0.999993 0.003804
vn 0.000000 0.999993 0.003804
vn 0.000000 0.003357 -0.999994
vn 0.000000 0.003357 -0.999994
vn 0.000000 0.003357 -0.999994
vn 0.000000 0.003357 -0.999994
vn 1.000000 0.000000 0.000000
vn 1.000000 0.000000 0.000000
vn 1.000000 0.000000 0.000000
vn 1.000000 0.000000 0.000000
vn -1.000000 0.000000 0.000000
vn -1.000000 0.000000 0.000000
vn -1.000000 0.000000 0.000000
vn -1.000000 0.000000 0.000000
s off
g polySurface13polySurface12
usemtl Pared_izq:phong1SG
f 1/1/1 2/2/2 4/3/3 3/4/4
f 3/4/5 4/3/6 6/5/7 5/6/8
f 5/6/9 6/5/10 8/7/11 7/8/12
f 7/8/13 8/7/14 2/9/15 1/10/16
f 2/2/17 8/11/18 6/12/19 4/3/20
f 7/13/21 1/1/22 3/4/23 5/14/24
