# This file uses centimeters as units for non-parametric coordinates.

mtllib Pared_der.mtl
g default
v -25.146629 0.086841 -12.187027
v -11.716831 0.086841 -12.187027
v -25.146631 0.086396 -12.069667
v -11.716832 0.086396 -12.069667
v -25.146631 15.123075 -12.019186
v -11.716832 15.123075 -12.019186
v -25.146629 15.123525 -12.136546
v -11.716831 15.123525 -12.136546
vt 0.375000 0.000000
vt 0.625000 0.000000
vt 0.733280 0.265990
vt 0.266720 0.265990
vt 0.733280 0.732550
vt 0.266720 0.732550
vt 1.001862 -0.002497
vt -0.001862 -0.002497
vt 1.001862 1.001228
vt -0.001862 1.001228
vt 0.875000 0.000000
vt 0.875000 0.250000
vt 0.125000 0.000000
vt 0.125000 0.250000
vn 0.000000 -0.999993 -0.003791
vn 0.000000 -0.999993 -0.003791
vn 0.000000 -0.999993 -0.003791
vn 0.000000 -0.999993 -0.003791
vn 0.000000 -0.003357 0.999994
vn 0.000000 -0.003357 0.999994
vn 0.000000 -0.003357 0.999994
vn 0.000000 -0.003357 0.999994
vn 0.000000 0.999993 0.003842
vn 0.000000 0.999993 0.003842
vn 0.000000 0.999993 0.003842
vn 0.000000 0.999993 0.003842
vn 0.000000 0.003357 -0.999994
vn 0.000000 0.003357 -0.999994
vn 0.000000 0.003357 -0.999994
vn 0.000000 0.003357 -0.999994
vn 1.000000 0.000000 0.000005
vn 1.000000 0.000000 0.000005
vn 1.000000 0.000000 0.000005
vn 1.000000 0.000000 0.000005
vn -1.000000 0.000000 -0.000005
vn -1.000000 0.000000 -0.000005
vn -1.000000 0.000000 -0.000005
vn -1.000000 0.000000 -0.000005
s off
g polySurface17polySurface16polySurface14polySurface12
usemtl Pared_der:phong1SG
f 1/1/1 2/2/2 4/3/3 3/4/4
f 3/4/5 4/3/6 6/5/7 5/6/8
f 5/6/9 6/5/10 8/7/11 7/8/12
f 7/8/13 8/7/14 2/9/15 1/10/16
f 2/2/17 8/11/18 6/12/19 4/3/20
f 7/13/21 1/1/22 3/4/23 5/14/24
