# This file uses centimeters as units for non-parametric coordinates.

mtllib estante.mtl
g default
v 2.322330 0.239844 -12.486119
v 2.331850 0.239844 -14.573074
v 2.322330 1.171921 -12.486119
v 2.331850 1.171921 -14.573074
v -4.286597 1.171921 -12.403207
v -4.277078 1.171921 -14.490162
v -4.286597 0.239844 -12.403207
v -4.277078 0.239844 -14.490162
v 2.322330 3.301765 -12.486119
v 2.331850 3.301765 -14.573074
v 2.322330 4.233843 -12.486119
v 2.331850 4.233843 -14.573074
v -4.286597 4.233843 -12.403207
v -4.277078 4.233843 -14.490162
v -4.286597 3.301765 -12.403207
v -4.277078 3.301765 -14.490162
v -4.283976 0.225540 -12.418576
v -4.232581 0.225540 -14.504919
v -4.283976 10.626318 -12.418576
v -4.232581 10.626318 -14.504919
v -10.893235 10.626318 -12.468297
v -10.841841 10.626318 -14.554640
v -10.893235 0.225540 -12.468297
v -10.841841 0.225540 -14.554640
v 8.930720 0.225540 -12.418576
v 8.982115 0.225540 -14.504919
v 8.930720 10.626318 -12.418576
v 8.982115 10.626318 -14.504919
v 2.321460 10.626318 -12.468297
v 2.372854 10.626318 -14.554640
v 2.321460 0.225540 -12.468297
v 2.372854 0.225540 -14.554640
v 2.322330 9.706264 -12.486119
v 2.331850 9.706264 -14.573074
v 2.322330 10.638342 -12.486119
v 2.331850 10.638342 -14.573074
v -4.286597 10.638342 -12.403207
v -4.277078 10.638342 -14.490162
v -4.286597 9.706264 -12.403207
v -4.277078 9.706264 -14.490162
v 8.887249 0.225540 -14.356504
v 9.041332 0.225540 -14.715430
v 8.887249 10.626318 -14.356504
v 9.041332 10.626318 -14.715430
v -10.927564 10.626318 -14.365058
v -10.773480 10.626318 -14.723984
v -10.927564 0.225540 -14.365058
v -10.773480 0.225540 -14.723984
v 2.322330 6.481605 -12.486119
v 2.331850 6.481605 -14.573074
v 2.322330 7.413683 -12.486119
v 2.331850 7.413683 -14.573074
v -4.286597 7.413683 -12.403207
v -4.277078 7.413683 -14.490162
v -4.286597 6.481605 -12.403207
v -4.277078 6.481605 -14.490162
vt 0.375000 0.000000
vt 0.625000 0.000000
vt 0.625000 0.250000
vt 0.375000 0.250000
vt 0.625000 0.500000
vt 0.375000 0.500000
vt 0.625000 0.750000
vt 0.375000 0.750000
vt 0.625000 1.000000
vt 0.375000 1.000000
vt 1.002412 0.000000
vt 1.002412 0.250000
vt 0.001570 0.001991
vt 0.001570 0.250000
vt 0.375000 0.000000
vt 0.625000 0.000000
vt 0.625000 0.250000
vt 0.375000 0.250000
vt 0.625000 0.500000
vt 0.375000 0.500000
vt 0.625000 0.750000
vt 0.375000 0.750000
vt 0.625000 1.000000
vt 0.375000 1.000000
vt 1.002412 0.000000
vt 1.002412 0.250000
vt 0.001570 0.001991
vt 0.001570 0.250000
vt 0.375000 0.000000
vt 0.625000 0.000000
vt 0.625000 0.250000
vt 0.375000 0.250000
vt 0.625000 0.500000
vt 0.375000 0.500000
vt 0.625000 0.750000
vt 0.375000 0.750000
vt 0.625000 1.000000
vt 0.375000 1.000000
vt 1.002412 0.000000
vt 1.002412 0.250000
vt 0.001570 0.001991
vt 0.001570 0.250000
vt 0.375000 0.000000
vt 0.625000 0.000000
vt 0.625000 0.250000
vt 0.375000 0.250000
vt 0.625000 0.500000
vt 0.375000 0.500000
vt 0.625000 0.750000
vt 0.375000 0.750000
vt 0.625000 1.000000
vt 0.375000 1.000000
vt 1.002412 0.000000
vt 1.002412 0.250000
vt 0.001570 0.001991
vt 0.001570 0.250000
vt 0.375000 0.000000
vt 0.625000 0.000000
vt 0.625000 0.250000
vt 0.375000 0.250000
vt 0.625000 0.500000
vt 0.375000 0.500000
vt 0.625000 0.750000
vt 0.375000 0.750000
vt 0.625000 1.000000
vt 0.375000 1.000000
vt 1.002412 0.000000
vt 1.002412 0.250000
vt 0.001570 0.001991
vt 0.001570 0.250000
vt 0.375000 0.000000
vt 0.625000 0.000000
vt 0.625000 0.250000
vt 0.375000 0.250000
vt 0.625000 0.500000
vt 0.375000 0.500000
vt 0.625000 0.750000
vt 0.375000 0.750000
vt 0.625000 1.000000
vt 0.375000 1.000000
vt 1.002412 0.000000
vt 1.002412 0.250000
vt 0.001570 0.001991
vt 0.001570 0.250000
vt 0.375000 0.000000
vt 0.625000 0.000000
vt 0.625000 0.250000
vt 0.375000 0.250000
vt 0.625000 0.500000
vt 0.375000 0.500000
vt 0.625000 0.750000
vt 0.375000 0.750000
vt 0.625000 1.000000
vt 0.375000 1.000000
vt 1.002412 0.000000
vt 1.002412 0.250000
vt 0.001570 0.001991
vt 0.001570 0.250000
vn 0.999990 0.000000 0.004562
vn 0.999990 0.000000 0.004562
vn 0.999990 0.000000 0.004562
vn 0.999990 0.000000 0.004562
vn 0.000000 1.000000 0.000000
vn 0.000000 1.000000 0.000000
vn 0.000000 1.000000 0.000000
vn 0.000000 1.000000 0.000000
vn -0.999990 0.000000 -0.004562
vn -0.999990 0.000000 -0.004562
vn -0.999990 0.000000 -0.004562
vn -0.999990 0.000000 -0.004562
vn 0.000000 -1.000000 0.000000
vn 0.000000 -1.000000 0.000000
vn 0.000000 -1.000000 0.000000
vn 0.000000 -1.000000 0.000000
vn -0.012544 0.000000 -0.999921
vn -0.012544 0.000000 -0.999921
vn -0.012544 0.000000 -0.999921
vn -0.012544 0.000000 -0.999921
vn 0.012544 0.000000 0.999921
vn 0.012544 0.000000 0.999921
vn 0.012544 0.000000 0.999921
vn 0.012544 0.000000 0.999921
vn 0.999990 0.000000 0.004562
vn 0.999990 0.000000 0.004562
vn 0.999990 0.000000 0.004562
vn 0.999990 0.000000 0.004562
vn 0.000000 1.000000 0.000000
vn 0.000000 1.000000 0.000000
vn 0.000000 1.000000 0.000000
vn 0.000000 1.000000 0.000000
vn -0.999990 0.000000 -0.004562
vn -0.999990 0.000000 -0.004562
vn -0.999990 0.000000 -0.004562
vn -0.999990 0.000000 -0.004562
vn 0.000000 -1.000000 0.000000
vn 0.000000 -1.000000 0.000000
vn 0.000000 -1.000000 0.000000
vn 0.000000 -1.000000 0.000000
vn -0.012544 0.000000 -0.999921
vn -0.012544 0.000000 -0.999921
vn -0.012544 0.000000 -0.999921
vn -0.012544 0.000000 -0.999921
vn 0.012544 0.000000 0.999921
vn 0.012544 0.000000 0.999921
vn 0.012544 0.000000 0.999921
vn 0.012544 0.000000 0.999921
vn 0.999697 0.000000 0.024627
vn 0.999697 0.000000 0.024627
vn 0.999697 0.000000 0.024627
vn 0.999697 0.000000 0.024627
vn 0.000000 1.000000 0.000000
vn 0.000000 1.000000 0.000000
vn 0.000000 1.000000 0.000000
vn 0.000000 1.000000 0.000000
vn -0.999697 0.000000 -0.024627
vn -0.999697 0.000000 -0.024627
vn -0.999697 0.000000 -0.024627
vn -0.999697 0.000000 -0.024627
vn 0.000000 -1.000000 0.000000
vn 0.000000 -1.000000 0.000000
vn 0.000000 -1.000000 0.000000
vn 0.000000 -1.000000 0.000000
vn 0.007523 0.000000 -0.999972
vn 0.007523 0.000000 -0.999972
vn 0.007523 0.000000 -0.999972
vn 0.007523 0.000000 -0.999972
vn -0.007523 0.000000 0.999972
vn -0.007523 0.000000 0.999972
vn -0.007523 0.000000 0.999972
vn -0.007523 0.000000 0.999972
vn 0.999697 0.000000 0.024627
vn 0.999697 0.000000 0.024627
vn 0.999697 0.000000 0.024627
vn 0.999697 0.000000 0.024627
vn 0.000000 1.000000 0.000000
vn 0.000000 1.000000 0.000000
vn 0.000000 1.000000 0.000000
vn 0.000000 1.000000 0.000000
vn -0.999697 0.000000 -0.024627
vn -0.999697 0.000000 -0.024627
vn -0.999697 0.000000 -0.024627
vn -0.999697 0.000000 -0.024627
vn 0.000000 -1.000000 0.000000
vn 0.000000 -1.000000 0.000000
vn 0.000000 -1.000000 0.000000
vn 0.000000 -1.000000 0.000000
vn 0.007523 0.000000 -0.999972
vn 0.007523 0.000000 -0.999972
vn 0.007523 0.000000 -0.999972
vn 0.007523 0.000000 -0.999972
vn -0.007523 0.000000 0.999972
vn -0.007523 0.000000 0.999972
vn -0.007523 0.000000 0.999972
vn -0.007523 0.000000 0.999972
vn 0.999990 0.000000 0.004562
vn 0.999990 0.000000 0.004562
vn 0.999990 0.000000 0.004562
vn 0.999990 0.000000 0.004562
vn 0.000000 1.000000 0.000000
vn 0.000000 1.000000 0.000000
vn 0.000000 1.000000 0.000000
vn 0.000000 1.000000 0.000000
vn -0.999990 0.000000 -0.004562
vn -0.999990 0.000000 -0.004562
vn -0.999990 0.000000 -0.004562
vn -0.999990 0.000000 -0.004562
vn 0.000000 -1.000000 0.000000
vn 0.000000 -1.000000 0.000000
vn 0.000000 -1.000000 0.000000
vn 0.000000 -1.000000 0.000000
vn -0.012544 0.000000 -0.999921
vn -0.012544 0.000000 -0.999921
vn -0.012544 0.000000 -0.999921
vn -0.012544 0.000000 -0.999921
vn 0.012544 0.000000 0.999921
vn 0.012544 0.000000 0.999921
vn 0.012544 0.000000 0.999921
vn 0.012544 0.000000 0.999921
vn 0.918904 0.000000 0.394481
vn 0.918904 0.000000 0.394481
vn 0.918904 0.000000 0.394481
vn 0.918904 0.000000 0.394481
vn 0.000000 1.000000 0.000000
vn 0.000000 1.000000 0.000000
vn 0.000000 1.000000 0.000000
vn 0.000000 1.000000 0.000000
vn -0.918904 0.000000 -0.394481
vn -0.918904 0.000000 -0.394481
vn -0.918904 0.000000 -0.394481
vn -0.918904 0.000000 -0.394481
vn 0.000000 -1.000000 0.000000
vn 0.000000 -1.000000 0.000000
vn 0.000000 -1.000000 0.000000
vn 0.000000 -1.000000 0.000000
vn 0.000432 0.000000 -1.000000
vn 0.000432 0.000000 -1.000000
vn 0.000432 0.000000 -1.000000
vn 0.000432 0.000000 -1.000000
vn -0.000432 0.000000 1.000000
vn -0.000432 0.000000 1.000000
vn -0.000432 0.000000 1.000000
vn -0.000432 0.000000 1.000000
vn 0.999990 0.000000 0.004562
vn 0.999990 0.000000 0.004562
vn 0.999990 0.000000 0.004562
vn 0.999990 0.000000 0.004562
vn 0.000000 1.000000 0.000000
vn 0.000000 1.000000 0.000000
vn 0.000000 1.000000 0.000000
vn 0.000000 1.000000 0.000000
vn -0.999990 0.000000 -0.004562
vn -0.999990 0.000000 -0.004562
vn -0.999990 0.000000 -0.004562
vn -0.999990 0.000000 -0.004562
vn 0.000000 -1.000000 0.000000
vn 0.000000 -1.000000 0.000000
vn 0.000000 -1.000000 0.000000
vn 0.000000 -1.000000 0.000000
vn -0.012544 0.000000 -0.999921
vn -0.012544 0.000000 -0.999921
vn -0.012544 0.000000 -0.999921
vn -0.012544 0.000000 -0.999921
vn 0.012544 0.000000 0.999921
vn 0.012544 0.000000 0.999921
vn 0.012544 0.000000 0.999921
vn 0.012544 0.000000 0.999921
s off
g polySurface30polySurface38
usemtl techo_barra:phong2SG
f 1/1/1 2/2/2 4/3/3 3/4/4
f 3/4/5 4/3/6 6/5/7 5/6/8
f 5/6/9 6/5/10 8/7/11 7/8/12
f 7/8/13 8/7/14 2/9/15 1/10/16
f 2/2/17 8/11/18 6/12/19 4/3/20
f 7/13/21 1/1/22 3/4/23 5/14/24
f 9/15/25 10/16/26 12/17/27 11/18/28
f 11/18/29 12/17/30 14/19/31 13/20/32
f 13/20/33 14/19/34 16/21/35 15/22/36
f 15/22/37 16/21/38 10/23/39 9/24/40
f 10/16/41 16/25/42 14/26/43 12/17/44
f 15/27/45 9/15/46 11/18/47 13/28/48
f 17/29/49 18/30/50 20/31/51 19/32/52
f 19/32/53 20/31/54 22/33/55 21/34/56
f 21/34/57 22/33/58 24/35/59 23/36/60
f 23/36/61 24/35/62 18/37/63 17/38/64
f 18/30/65 24/39/66 22/40/67 20/31/68
f 23/41/69 17/29/70 19/32/71 21/42/72
f 25/43/73 26/44/74 28/45/75 27/46/76
f 27/46/77 28/45/78 30/47/79 29/48/80
f 29/48/81 30/47/82 32/49/83 31/50/84
f 31/50/85 32/49/86 26/51/87 25/52/88
f 26/44/89 32/53/90 30/54/91 28/45/92
f 31/55/93 25/43/94 27/46/95 29/56/96
f 33/57/97 34/58/98 36/59/99 35/60/100
f 35/60/101 36/59/102 38/61/103 37/62/104
f 37/62/105 38/61/106 40/63/107 39/64/108
f 39/64/109 40/63/110 34/65/111 33/66/112
f 34/58/113 40/67/114 38/68/115 36/59/116
f 39/69/117 33/57/118 35/60/119 37/70/120
f 41/71/121 42/72/122 44/73/123 43/74/124
f 43/74/125 44/73/126 46/75/127 45/76/128
f 45/76/129 46/75/130 48/77/131 47/78/132
f 47/78/133 48/77/134 42/79/135 41/80/136
f 42/72/137 48/81/138 46/82/139 44/73/140
f 47/83/141 41/71/142 43/74/143 45/84/144
f 49/85/145 50/86/146 52/87/147 51/88/148
f 51/88/149 52/87/150 54/89/151 53/90/152
f 53/90/153 54/89/154 56/91/155 55/92/156
f 55/92/157 56/91/158 50/93/159 49/94/160
f 50/86/161 56/95/162 54/96/163 52/87/164
f 55/97/165 49/85/166 51/88/167 53/98/168
